<svg id="Layer_1" data-name="Layer 1" xmlns="http://www.w3.org/2000/svg" xmlns:xlink="http://www.w3.org/1999/xlink" viewBox="0 0 158.55 159.21"><defs><style>.cls-1{fill:url(#linear-gradient);}</style><linearGradient id="linear-gradient" x1="-119.8" y1="535.84" x2="-119.8" y2="534.84" gradientTransform="matrix(-127.34, -84.82, -88.63, 133.06, 32269.97, -81314.06)" gradientUnits="userSpaceOnUse"><stop offset="0" stop-color="#339dcc"/><stop offset="1" stop-color="#1c3b84"/></linearGradient></defs><path class="cls-1" d="M40.86,59.48c-.33,3.23-1.73,5.33-4.15,6.54,1.49.79,3.31,1.4,4.53,2.61a9.93,9.93,0,0,1,2,5,6.59,6.59,0,0,1-4.76,6.54c-3.17,1.12-6-.14-8.78-3.83-.37,3-1.72,5.32-4.38,6.58,4.81,1.59,6.67,3.64,6.86,7a7.09,7.09,0,0,1-4.48,6.73c-3.26,1.26-5.92.09-9.1-3.64a7.76,7.76,0,0,1-4.62,6.63c4.34,1.07,7.1,3.31,6.91,7.84a6.85,6.85,0,0,1-5.08,6.11c-3.22.89-5.88-.28-8.4-3.78a5.92,5.92,0,0,0-.47,1.92l-.47.09c-1-2.7-1.91-5.32-3-7.89.09-.14.32-.18.42-.32.93,1,1.86,2,2.61,2.75l3.83-5.74c-1.64-.89-3.55-2-5.61-3.13-.32.8-.93,2-1.54,3.23.24,0,.33-.19.57-.24-1-3.68-2-7.61-3.09-11.76,1.35,1.31,2.24,2.1,3.13,2.89L6.8,86.94c-1.5-.79-3-1.82-4.67-2.7-.47.7-.89,1.63-1.45,2.47C0,82-1.24,77.14,3.43,73.17-.16,72.8.58,70.47.91,68.46A78.53,78.53,0,0,1,7.57,46.61C8,45.68,8.93,44.89,9.35,44s.46-1.91.88-2.85A100.8,100.8,0,0,1,17,30.88,76,76,0,0,1,34,14.86c3-2,6.39-3.83,9.43-5.65a9.35,9.35,0,0,0,1.72-1.68c0,.38.14.7.1,1.08,1.86-1,3.64-1.83,5.36-2.9l.24,0c3.36-2,6.39-1.4,8.63,1.91C63.29-1.2,69.77.29,73.56,5.84c.6-1.21,1.07-2.52,1.68-3.74A4,4,0,0,1,79.06,0a13.14,13.14,0,0,0,2.43,0C86,0,86.77,1.49,87.7,4.34A6.7,6.7,0,0,1,84.39,12c-3.36,2-7,.8-9.94-3A10.2,10.2,0,0,1,73,13.12a24.15,24.15,0,0,1-2.61,2.71c1.36.7,3.18,1.3,4.39,2.52a8,8,0,0,1,1.92,4.71A6.6,6.6,0,0,1,72,29.69c-3.18,1.12-5.93.09-8.87-3.68a8.27,8.27,0,0,1-4.39,6.58c4.67,1.49,6.68,3.64,6.87,7a7.13,7.13,0,0,1-4.25,6.67c-3.26,1.26-5.88.33-9.19-3.49a7.78,7.78,0,0,1-4.62,6.63c4.29.83,7.05,3.07,6.86,7.6a6.86,6.86,0,0,1-5.18,6.26C46.09,64.38,43.43,63.22,40.86,59.48ZM29,72.79l3.73-5.6c-1.63-.89-3.55-2-5.46-3l-3.08,4.62C25.79,70.27,27.51,71.62,29,72.79ZM62.55,22.37l3.73-5.6c-1.63-.89-3.55-2-5.46-3l-3.08,4.63C59.37,19.85,61.1,21.2,62.55,22.37ZM16,81,13,85.59c1.72,1.35,3.45,2.7,4.9,3.87l3.73-5.6A62.46,62.46,0,0,1,16,81ZM38.43,47.35,35.35,52c1.72,1.35,3.36,2.85,4.81,4l3.73-5.6C42.25,49.5,40.34,48.42,38.43,47.35ZM55.08,33.57c-1.63-.88-3.54-2-5.46-3l-3.08,4.62c1.73,1.36,3.36,2.85,4.81,4C52.57,37.36,54,35.25,55.08,33.57ZM44.58,21.12c1.3,1.07,2.61,2.14,3.87,3l3-4.48c-1.5-.79-3-1.59-4.25-2.43ZM17.76,70.18a46.62,46.62,0,0,1-4.25-2.42L11,71.54c1.31,1.07,2.71,2,3.88,3ZM24.85,51l-2.52,3.78c1.3,1.08,2.71,2,3.73,2.9l3-4.49A43.93,43.93,0,0,1,24.85,51Zm12.31-10,3-4.48c-1.5-.8-2.85-1.5-4.11-2.34L33.52,38C34.69,39,36,40.07,37.16,41.05ZM34.26,26l2.15-3.22c-1.07-.51-2-1.16-3-1.58l-1.77,2.66C32.54,24.62,33.38,25.18,34.26,26Zm-25,31.47a20.64,20.64,0,0,0,2.61,2.15L14,56.37a26.66,26.66,0,0,1-3-1.59ZM23.07,42.78l2.05-3.08c-.93-.42-1.77-1-2.71-1.4l-1.68,2.52C21.48,41.52,22.32,42.08,23.07,42.78Zm32.81,7.5A6.65,6.65,0,1,1,67,57.65a6.65,6.65,0,1,1-11.07-7.37ZM69,42.81A6.65,6.65,0,1,1,78.05,41,6.8,6.8,0,0,1,69,42.81ZM44.69,67.09a6.73,6.73,0,1,1,11.2,7.46,6.73,6.73,0,0,1-11.2-7.46ZM87.47,14.71a6.6,6.6,0,0,1,2,9.19,6.73,6.73,0,1,1-2-9.19ZM24,110a6.75,6.75,0,0,1-1.87-9.34,6.73,6.73,0,1,1,11.2,7.47A6.75,6.75,0,0,1,24,110ZM35.22,93.14a6.72,6.72,0,0,1-2-9.2,6.65,6.65,0,1,1,11.06,7.38A6.47,6.47,0,0,1,35.22,93.14ZM10.73,117.47c2-2.48,5.32-3.74,8.21-2.62A6.69,6.69,0,0,1,23.29,122c-.47,3.13-3,5.69-6,5.69a4.19,4.19,0,0,1-2.66-1.16,47.67,47.67,0,0,1-4-6.11C10.31,119.61,10.68,118.45,10.73,117.47ZM78.89,45.79a6.4,6.4,0,1,1-7.23,10.56A6.37,6.37,0,0,1,70,47.57,6.62,6.62,0,0,1,78.89,45.79Zm-20,18.45a6.4,6.4,0,1,1,1.78,8.87A6.4,6.4,0,0,1,58.92,64.24ZM83,39.63a6.48,6.48,0,1,1,9-1.92A6.42,6.42,0,0,1,83,39.63ZM56.64,79.5a6.55,6.55,0,0,1,1.69,9,6.39,6.39,0,0,1-8.92,1.54,6.59,6.59,0,0,1-1.64-8.77A6.19,6.19,0,0,1,56.64,79.5ZM92.42,14a6.64,6.64,0,0,1,9-1.92,6.39,6.39,0,0,1,1.77,8.87,6.59,6.59,0,0,1-8.72,1.87A6.49,6.49,0,0,1,92.42,14Zm-56,84A6.4,6.4,0,1,1,47,105.22,6.62,6.62,0,0,1,38.12,107,6.78,6.78,0,0,1,36.44,98Zm-2.19,15.13a6.4,6.4,0,1,1-8.91,1.54A6.5,6.5,0,0,1,34.25,113.12ZM97.19,36.55a6,6,0,0,1-1.69-8.41,6.06,6.06,0,1,1,10,6.86A6,6,0,0,1,97.19,36.55ZM73.11,61.76a6.06,6.06,0,1,1,10,6.86,5.89,5.89,0,0,1-8.31,1.54A6.26,6.26,0,0,1,73.11,61.76Zm19.74-18.4a5.89,5.89,0,0,1,1.54,8.31,6.06,6.06,0,1,1-1.54-8.31ZM39.53,112.18a6.06,6.06,0,1,1,1.68,8.4A6.13,6.13,0,0,1,39.53,112.18Zm12.87-8.41a6,6,0,0,1-1.68-8.4,6.18,6.18,0,0,1,8.54-1.59,6.06,6.06,0,0,1-6.86,10Zm9.52-25.2a6,6,0,0,1,8.26-1.78,5.92,5.92,0,0,1,1.68,8.4,6,6,0,0,1-8.4,1.68A6.22,6.22,0,0,1,61.92,78.57ZM106.79,11.2a6.14,6.14,0,0,1,8.45-1.45,6.06,6.06,0,1,1-7,9.89A6.38,6.38,0,0,1,106.79,11.2ZM30,137.39a5.89,5.89,0,0,1-1.54-8.31,6.06,6.06,0,1,1,10,6.86A6.27,6.27,0,0,1,30,137.39Zm20.67-12.52a5.64,5.64,0,1,1-7.88,1.22A5.87,5.87,0,0,1,50.68,124.87ZM95.33,57.55a5.67,5.67,0,0,1,1.59,7.93,5.53,5.53,0,0,1-7.84,1.45A5.66,5.66,0,0,1,87.49,59,5.86,5.86,0,0,1,95.33,57.55ZM65.14,92.85a5.71,5.71,0,0,1,8.07-1.5,5.64,5.64,0,0,1,1.46,7.84,5.72,5.72,0,1,1-9.53-6.34Zm46.37-59.3a5.67,5.67,0,0,1-1.59-7.93,5.76,5.76,0,0,1,7.8-1.68,5.67,5.67,0,0,1,1.59,7.93A5.76,5.76,0,0,1,111.51,33.55ZM77.93,84A5.67,5.67,0,0,1,76.34,76a5.75,5.75,0,0,1,7.79-1.68,5.67,5.67,0,0,1,1.59,7.93A5.75,5.75,0,0,1,77.93,84ZM61.74,108a5.67,5.67,0,0,1,1.59,7.93,5.74,5.74,0,0,1-7.79,1.69A5.68,5.68,0,0,1,54,109.65,5.53,5.53,0,0,1,61.74,108Zm37-65.55a5.66,5.66,0,0,1,7.93-1.58,5.73,5.73,0,0,1,1.68,7.79,5.67,5.67,0,0,1-7.93,1.59A5.54,5.54,0,0,1,98.73,42.42Zm1.9-35.33A6.74,6.74,0,0,1,92.55,9.8,6.69,6.69,0,0,1,88.3,2.52c.24-1.26.47-1.91,2.1-1.63,2.95.74,6,1,9,1.72,2.66.56,2.89,1.12,1.72,3.78ZM88.06,96.39a5.41,5.41,0,0,1-7.42,1.12,5.18,5.18,0,0,1-1.12-7.42,5.32,5.32,0,0,1,7.56-1A5.06,5.06,0,0,1,88.06,96.39ZM45.84,140.65a5.31,5.31,0,0,1,7.46-1.5,5.24,5.24,0,0,1,1.45,7.24,5.31,5.31,0,0,1-7.46,1.49A5.13,5.13,0,0,1,45.84,140.65Zm56.07-84.18a5.22,5.22,0,0,1,7.51-1.26,5,5,0,0,1,1.22,7.28,5.22,5.22,0,0,1-7.52,1.26A5.14,5.14,0,0,1,101.91,56.47ZM113,39.81a5.08,5.08,0,0,1,7.37-1.36,5.28,5.28,0,0,1,1.36,7.37,5.07,5.07,0,0,1-7.37,1.36A5.38,5.38,0,0,1,113,39.81ZM69.68,114.27a5.08,5.08,0,0,1-1.36-7.37,5.28,5.28,0,0,1,7.38-1.36,5.07,5.07,0,0,1,1.35,7.37A5.17,5.17,0,0,1,69.68,114.27ZM57.13,123.7a5.22,5.22,0,0,1,7.51-1.26,5,5,0,0,1,1.22,7.28A5.23,5.23,0,0,1,58.34,131,5.14,5.14,0,0,1,57.13,123.7ZM124.21,23a5.31,5.31,0,0,1,7.46-1.5,5.25,5.25,0,0,1,1.45,7.24,5.31,5.31,0,0,1-7.46,1.49A5.12,5.12,0,0,1,124.21,23ZM90.62,73.42a5.32,5.32,0,0,1,7.47-1.5,5.15,5.15,0,0,1,1.45,7.24,5.32,5.32,0,0,1-7.47,1.49A5.13,5.13,0,0,1,90.62,73.42Zm10,12.93a4.82,4.82,0,0,1,1.27,6.9,4.76,4.76,0,0,1-6.68,1.22,4.82,4.82,0,0,1-1.26-6.91A4.64,4.64,0,0,1,100.61,86.35Zm11.2-16.81a4.82,4.82,0,0,1,1.26,6.91,4.73,4.73,0,0,1-6.67,1.21,4.82,4.82,0,0,1-1.27-6.9A4.64,4.64,0,0,1,111.81,69.54Zm4.38-15.69a4.82,4.82,0,0,1,6.91-1.26,4.89,4.89,0,0,1,1.12,6.81,4.82,4.82,0,0,1-6.91,1.27A4.9,4.9,0,0,1,116.19,53.85ZM90.87,109.78a4.69,4.69,0,0,1-6.77,1.36,4.79,4.79,0,0,1-1.36-6.77A4.69,4.69,0,0,1,89.51,103,5.12,5.12,0,0,1,90.87,109.78Zm-29.4,35a4.84,4.84,0,0,1-1.26-6.91,4.75,4.75,0,0,1,6.68-1.22,4.82,4.82,0,0,1,1.26,6.91A4.75,4.75,0,0,1,61.47,144.8ZM134.2,35.92a4.82,4.82,0,0,1,1.26,6.91,4.74,4.74,0,0,1-6.67,1.22,4.82,4.82,0,0,1-1.26-6.91A4.65,4.65,0,0,1,134.2,35.92Zm-62.89,85.3A4.82,4.82,0,0,1,78.22,120a4.74,4.74,0,0,1,1.22,6.67,4.83,4.83,0,0,1-6.91,1.27A4.76,4.76,0,0,1,71.31,121.22ZM125.62,67a4.46,4.46,0,1,1-6.2,1.13A4.47,4.47,0,0,1,125.62,67Zm-62.27,85.3a4.46,4.46,0,1,1,1.35,6.16A4.37,4.37,0,0,1,63.35,152.31Zm39.88-51.68a4.46,4.46,0,1,1-6.2,1.12A4.48,4.48,0,0,1,103.23,100.63Zm28.64-43A4.46,4.46,0,1,1,138,56.27,4.38,4.38,0,0,1,131.87,57.63ZM85.74,118.7a4.46,4.46,0,1,1,1.35,6.16A4.29,4.29,0,0,1,85.74,118.7Zm-9.84,23a4.46,4.46,0,1,1,6.16-1.36A4.5,4.5,0,0,1,75.9,141.67Zm32.23-56.59a4.46,4.46,0,1,1,1.35,6.16A4.38,4.38,0,0,1,108.13,85.08Zm-67.56,65c-.42-.28-.94-.42-1.22-.61l-8.12-5.41a5.48,5.48,0,0,1,5-3.31,5.59,5.59,0,0,1,5.28,3.31A5.47,5.47,0,0,1,40.57,150.08Zm87.58-68.65a3.85,3.85,0,0,1,1,5.51,4.25,4.25,0,0,1-5.74,1,4.18,4.18,0,0,1-1-5.51A4.24,4.24,0,0,1,128.15,81.43Zm5.69-15.82a3.94,3.94,0,0,1,5.5-1,4,4,0,1,1-4.61,6.63A4.09,4.09,0,0,1,133.84,65.61Zm12.08-11.16a4,4,0,0,1,4.48-6.72,4,4,0,0,1,1,5.5A3.85,3.85,0,0,1,145.92,54.45ZM105.62,115a4,4,0,1,1-5.6,1.12A4.34,4.34,0,0,1,105.62,115ZM77.77,149.79a4,4,0,0,1,5.46-1.22,4.24,4.24,0,0,1,1.26,5.69,4,4,0,1,1-6.72-4.47Zm16.79-17.93a4.09,4.09,0,0,1,1.12,5.6,4.14,4.14,0,0,1-5.74,1,4,4,0,0,1,4.62-6.63Zm16.79-32.5a4.06,4.06,0,0,1,5.46-1.21,4,4,0,1,1-4.38,6.58A3.82,3.82,0,0,1,111.35,99.36Zm33.26-66.61c1.4,2.14,2.75,4.06,3.87,6,.33.41,0,1.58-.46,1.91a4.45,4.45,0,0,1-7.19-3.78A4.6,4.6,0,0,1,144.61,32.75Zm-119.78,106c-2.8-3.08-5.55-5.92-8.22-8.91a5.91,5.91,0,0,1,6.87.32C25.81,132.16,26.37,135,24.83,138.79ZM125.77,96.84a3.45,3.45,0,1,1,1.08,4.76A3.54,3.54,0,0,1,125.77,96.84ZM97,146.18a3.45,3.45,0,1,1-4.76,1.08A3.65,3.65,0,0,1,97,146.18Zm23.27-28.68a3.37,3.37,0,1,1-.87-4.68A3.37,3.37,0,0,1,120.22,117.5Zm-16.84,12.95a3.45,3.45,0,1,1,1.08,4.76A3.42,3.42,0,0,1,103.38,130.45Zm33.68-50.56a3.45,3.45,0,1,1,.85,4.81A3.41,3.41,0,0,1,137.06,79.89Zm16.75-12.81a3.37,3.37,0,1,1-.87-4.68A3.37,3.37,0,0,1,153.81,67.08Zm1.69,9.72a3,3,0,0,1,.79,4,2.87,2.87,0,0,1-4.1.7,2.8,2.8,0,0,1-.66-3.87A2.75,2.75,0,0,1,155.5,76.8ZM110.72,144a2.69,2.69,0,0,1,.65,3.87,2.83,2.83,0,0,1-4,.57,2.93,2.93,0,0,1-.66-3.88A3.25,3.25,0,0,1,110.72,144ZM128.54,16.79c-4.1,2.52-9.15-1.44-8.26-5.5Zm-9.85,115a2.94,2.94,0,0,1-.79-4,2.69,2.69,0,0,1,3.87-.66,2.76,2.76,0,0,1,.75,3.73A2.61,2.61,0,0,1,118.69,131.75Zm11.2-16.8a3,3,0,0,1-.8-4,2.71,2.71,0,0,1,3.88-.66,2.78,2.78,0,0,1,.75,3.74A2.61,2.61,0,0,1,129.89,115Zm11.19-16.81a3,3,0,0,1-.79-4,2.69,2.69,0,0,1,3.87-.65,2.76,2.76,0,0,1,.75,3.73A2.61,2.61,0,0,1,141.08,98.14ZM57.75,157.68c-2.76-1-5.6-1.91-8.36-2.94a3.86,3.86,0,0,1,4.85-1.82A4.3,4.3,0,0,1,57.75,157.68Zm63.66-12.39c0-1-.29-2,0-2.8a1.73,1.73,0,0,1,2.66-.66c1.12.75,1.45,1.78.66,2.66a6.63,6.63,0,0,1-2.43,1.22A2.2,2.2,0,0,1,121.41,145.29Zm37-53.79c0,1,.28,2,0,2.81a2,2,0,0,1-2.94.46c-1.12-.74-1.35-1.91-.42-2.7.6-.61,1.68-.71,2.56-1.13ZM132.69,129c0-1.45-.56-2.8,0-3.27s1.72-.47,2.66-.65c.18.93.65,2,.28,2.61C135.5,128.39,134.19,128.53,132.69,129Zm10.45-20.54c1.59,0,2.8-.57,3.27,0s.47,1.72.65,2.66c-.93.19-2.05.65-2.61.28S143.66,109.76,143.14,108.41ZM103.85,3.78c2.61.93,4.85,1.82,7.33,2.65C107.91,7.7,105.3,6.76,103.85,3.78Z"/></svg>